<svg width="56" height="16" viewBox="0 0 56 16" fill="none" xmlns="http://www.w3.org/2000/svg">
<path d="M9.15483 4.63778C9.09801 4.06487 8.85417 3.61979 8.4233 3.30256C7.99242 2.98532 7.40767 2.8267 6.66903 2.8267C6.16714 2.8267 5.74337 2.89773 5.39773 3.03977C5.05208 3.17708 4.78693 3.36884 4.60227 3.61506C4.42235 3.86127 4.33239 4.14062 4.33239 4.45312C4.32292 4.71354 4.37737 4.94081 4.49574 5.13494C4.61884 5.32907 4.78693 5.49716 5 5.6392C5.21307 5.77651 5.45928 5.89725 5.73864 6.00142C6.01799 6.10085 6.31629 6.18608 6.63352 6.2571L7.94034 6.5696C8.57481 6.71165 9.1572 6.90104 9.6875 7.13778C10.2178 7.37453 10.6771 7.66572 11.0653 8.01136C11.4536 8.35701 11.7543 8.7642 11.9673 9.23295C12.1851 9.7017 12.2964 10.2391 12.3011 10.8452C12.2964 11.7353 12.0691 12.5071 11.6193 13.1605C11.1742 13.8092 10.5303 14.3134 9.6875 14.6733C8.84943 15.0284 7.83854 15.206 6.65483 15.206C5.48059 15.206 4.45786 15.026 3.58665 14.6662C2.72017 14.3063 2.04309 13.7737 1.5554 13.0682C1.07244 12.358 0.819129 11.4796 0.795455 10.4332H3.77131C3.80445 10.9209 3.94413 11.3281 4.19034 11.6548C4.44129 11.9768 4.77509 12.2206 5.19176 12.3864C5.61316 12.5473 6.08902 12.6278 6.61932 12.6278C7.14015 12.6278 7.59233 12.5521 7.97585 12.4006C8.36411 12.2491 8.66477 12.0384 8.87784 11.7685C9.09091 11.4986 9.19744 11.1884 9.19744 10.8381C9.19744 10.5114 9.10038 10.2367 8.90625 10.0142C8.71686 9.79167 8.4375 9.60227 8.06818 9.44602C7.7036 9.28977 7.25616 9.14773 6.72585 9.01989L5.14205 8.62216C3.91572 8.32386 2.94744 7.85748 2.23722 7.22301C1.52699 6.58854 1.17424 5.7339 1.17898 4.65909C1.17424 3.77841 1.40862 3.009 1.8821 2.35085C2.36032 1.69271 3.0161 1.17898 3.84943 0.809659C4.68277 0.44034 5.62973 0.255681 6.69034 0.255681C7.76989 0.255681 8.71212 0.44034 9.51705 0.809659C10.3267 1.17898 10.9564 1.69271 11.4062 2.35085C11.8561 3.009 12.0881 3.77131 12.1023 4.63778H9.15483ZM14.3697 15V0.454545H17.445V6.45597H23.6879V0.454545H26.756V15H23.6879V8.99148H17.445V15H14.3697ZM42.658 7.72727C42.658 9.31345 42.3574 10.6629 41.756 11.7756C41.1594 12.8883 40.3451 13.7382 39.3129 14.3253C38.2854 14.9077 37.1301 15.1989 35.8469 15.1989C34.5543 15.1989 33.3943 14.9053 32.3668 14.3182C31.3394 13.7311 30.5273 12.8812 29.9308 11.7685C29.3342 10.6558 29.0359 9.30871 29.0359 7.72727C29.0359 6.1411 29.3342 4.79167 29.9308 3.67898C30.5273 2.56629 31.3394 1.71875 32.3668 1.13636C33.3943 0.549242 34.5543 0.255681 35.8469 0.255681C37.1301 0.255681 38.2854 0.549242 39.3129 1.13636C40.3451 1.71875 41.1594 2.56629 41.756 3.67898C42.3574 4.79167 42.658 6.1411 42.658 7.72727ZM39.5401 7.72727C39.5401 6.69981 39.3862 5.83333 39.0785 5.12784C38.7754 4.42235 38.3469 3.88731 37.793 3.52273C37.239 3.15814 36.5903 2.97585 35.8469 2.97585C35.1036 2.97585 34.4549 3.15814 33.9009 3.52273C33.3469 3.88731 32.9161 4.42235 32.6083 5.12784C32.3053 5.83333 32.1538 6.69981 32.1538 7.72727C32.1538 8.75473 32.3053 9.62121 32.6083 10.3267C32.9161 11.0322 33.3469 11.5672 33.9009 11.9318C34.4549 12.2964 35.1036 12.4787 35.8469 12.4787C36.5903 12.4787 37.239 12.2964 37.793 11.9318C38.3469 11.5672 38.7754 11.0322 39.0785 10.3267C39.3862 9.62121 39.5401 8.75473 39.5401 7.72727ZM44.9361 15V0.454545H50.6747C51.7779 0.454545 52.7178 0.665246 53.4943 1.08665C54.2708 1.50331 54.8627 2.08333 55.2699 2.8267C55.6818 3.56534 55.8878 4.41761 55.8878 5.38352C55.8878 6.34943 55.6795 7.2017 55.2628 7.94034C54.8461 8.67898 54.2424 9.25426 53.4517 9.66619C52.6657 10.0781 51.714 10.2841 50.5966 10.2841H46.9389V7.8196H50.0994C50.6913 7.8196 51.179 7.7178 51.5625 7.5142C51.9508 7.30587 52.2396 7.01941 52.429 6.65483C52.6231 6.28551 52.7202 5.86174 52.7202 5.38352C52.7202 4.90057 52.6231 4.47917 52.429 4.11932C52.2396 3.75473 51.9508 3.47301 51.5625 3.27415C51.1742 3.07055 50.6818 2.96875 50.0852 2.96875H48.0114V15H44.9361Z" fill="#3C6E71"/>
</svg>
