<svg width="117" height="50" viewBox="0 0 117 50" fill="none" xmlns="http://www.w3.org/2000/svg">
<path d="M1 1H116V25C116 38.2548 105.255 49 92 49H25C11.7452 49 1 38.2548 1 25V1Z" stroke="#3C6E71" stroke-width="2"/>
<path d="M39.1548 21.6378C39.098 21.0649 38.8542 20.6198 38.4233 20.3026C37.9924 19.9853 37.4077 19.8267 36.669 19.8267C36.1671 19.8267 35.7434 19.8977 35.3977 20.0398C35.0521 20.1771 34.7869 20.3688 34.6023 20.6151C34.4223 20.8613 34.3324 21.1406 34.3324 21.4531C34.3229 21.7135 34.3774 21.9408 34.4957 22.1349C34.6188 22.3291 34.7869 22.4972 35 22.6392C35.2131 22.7765 35.4593 22.8973 35.7386 23.0014C36.018 23.1009 36.3163 23.1861 36.6335 23.2571L37.9403 23.5696C38.5748 23.7116 39.1572 23.901 39.6875 24.1378C40.2178 24.3745 40.6771 24.6657 41.0653 25.0114C41.4536 25.357 41.7543 25.7642 41.9673 26.233C42.1851 26.7017 42.2964 27.2391 42.3011 27.8452C42.2964 28.7353 42.0691 29.5071 41.6193 30.1605C41.1742 30.8092 40.5303 31.3134 39.6875 31.6733C38.8494 32.0284 37.8385 32.206 36.6548 32.206C35.4806 32.206 34.4579 32.026 33.5866 31.6662C32.7202 31.3063 32.0431 30.7737 31.5554 30.0682C31.0724 29.358 30.8191 28.4796 30.7955 27.4332H33.7713C33.8045 27.9209 33.9441 28.3281 34.1903 28.6548C34.4413 28.9768 34.7751 29.2206 35.1918 29.3864C35.6132 29.5473 36.089 29.6278 36.6193 29.6278C37.1402 29.6278 37.5923 29.5521 37.9759 29.4006C38.3641 29.2491 38.6648 29.0384 38.8778 28.7685C39.0909 28.4986 39.1974 28.1884 39.1974 27.8381C39.1974 27.5114 39.1004 27.2367 38.9062 27.0142C38.7169 26.7917 38.4375 26.6023 38.0682 26.446C37.7036 26.2898 37.2562 26.1477 36.7259 26.0199L35.142 25.6222C33.9157 25.3239 32.9474 24.8575 32.2372 24.223C31.527 23.5885 31.1742 22.7339 31.179 21.6591C31.1742 20.7784 31.4086 20.009 31.8821 19.3509C32.3603 18.6927 33.0161 18.179 33.8494 17.8097C34.6828 17.4403 35.6297 17.2557 36.6903 17.2557C37.7699 17.2557 38.7121 17.4403 39.517 17.8097C40.3267 18.179 40.9564 18.6927 41.4062 19.3509C41.8561 20.009 42.0881 20.7713 42.1023 21.6378H39.1548ZM44.3697 32V17.4545H47.445V23.456H53.6879V17.4545H56.756V32H53.6879V25.9915H47.445V32H44.3697ZM72.658 24.7273C72.658 26.3134 72.3574 27.6629 71.756 28.7756C71.1594 29.8883 70.3451 30.7382 69.3129 31.3253C68.2854 31.9077 67.1301 32.1989 65.8469 32.1989C64.5543 32.1989 63.3943 31.9053 62.3668 31.3182C61.3394 30.7311 60.5273 29.8812 59.9308 28.7685C59.3342 27.6558 59.0359 26.3087 59.0359 24.7273C59.0359 23.1411 59.3342 21.7917 59.9308 20.679C60.5273 19.5663 61.3394 18.7187 62.3668 18.1364C63.3943 17.5492 64.5543 17.2557 65.8469 17.2557C67.1301 17.2557 68.2854 17.5492 69.3129 18.1364C70.3451 18.7187 71.1594 19.5663 71.756 20.679C72.3574 21.7917 72.658 23.1411 72.658 24.7273ZM69.5401 24.7273C69.5401 23.6998 69.3862 22.8333 69.0785 22.1278C68.7754 21.4223 68.3469 20.8873 67.793 20.5227C67.239 20.1581 66.5903 19.9759 65.8469 19.9759C65.1036 19.9759 64.4549 20.1581 63.9009 20.5227C63.3469 20.8873 62.9161 21.4223 62.6083 22.1278C62.3053 22.8333 62.1538 23.6998 62.1538 24.7273C62.1538 25.7547 62.3053 26.6212 62.6083 27.3267C62.9161 28.0322 63.3469 28.5672 63.9009 28.9318C64.4549 29.2964 65.1036 29.4787 65.8469 29.4787C66.5903 29.4787 67.239 29.2964 67.793 28.9318C68.3469 28.5672 68.7754 28.0322 69.0785 27.3267C69.3862 26.6212 69.5401 25.7547 69.5401 24.7273ZM74.9361 32V17.4545H80.6747C81.7779 17.4545 82.7178 17.6652 83.4943 18.0866C84.2708 18.5033 84.8627 19.0833 85.2699 19.8267C85.6818 20.5653 85.8878 21.4176 85.8878 22.3835C85.8878 23.3494 85.6795 24.2017 85.2628 24.9403C84.8461 25.679 84.2424 26.2543 83.4517 26.6662C82.6657 27.0781 81.714 27.2841 80.5966 27.2841H76.9389V24.8196H80.0994C80.6913 24.8196 81.179 24.7178 81.5625 24.5142C81.9508 24.3059 82.2396 24.0194 82.429 23.6548C82.6231 23.2855 82.7202 22.8617 82.7202 22.3835C82.7202 21.9006 82.6231 21.4792 82.429 21.1193C82.2396 20.7547 81.9508 20.473 81.5625 20.2741C81.1742 20.0705 80.6818 19.9688 80.0852 19.9688H78.0114V32H74.9361Z" fill="#3C6E71"/>
</svg>
